<svg xmlns="http://www.w3.org/2000/svg" xmlns:xlink="http://www.w3.org/1999/xlink" id="Capa_1" x="0" y="0" enable-background="new 0 0 520.3 520.3" version="1.1" viewBox="0 0 520.3 520.3" xml:space="preserve"><style type="text/css">.st0{fill:#4caf50}</style><g><path d="M411.5,0H108.9c-6.7,0-12.1,5.4-12.1,12.1v411.6c0,6.7,5.4,12.1,12.1,12.1s12.1-5.4,12.1-12.1V24.2h278.4v8.7 l-127.1,92.3v395.2l127.8-92.8c1.6,4.8,6.1,8.2,11.4,8.2c6.7,0,12.1-5.4,12.1-12.1V12.1C423.6,5.4,418.2,0,411.5,0z M320.3,332 c-5.7,0-10.5-7-11.7-16.5H295v-10.6h13.8c1.4-8.9,6-15.4,11.5-15.4c6.6,0,12,9.5,12,21.2C332.3,322.5,326.9,332,320.3,332z" class="st0"/></g></svg>